:FULLY-SPECIFIED
:FORCE-ALL-JOINTS-BE-3DOF
:DEGREES
849
root 3.85059 16.354 28.1651 0 0 0
lfemur -22.3671 2.31468 -14.2675
ltibia 34.4443 -0 0
lfoot 0 0 0
ltoes 8.21558 -0 0
rfemur 0 0 0
rtibia 68.2366 -0 0
rfoot 0 0 0
rtoes -15.1371 0 0
lowerback 4.34302 2.58626 -0.829391
upperback 1.19096 3.41987 0.271125
thorax -1.09584 1.71705 0.919359
lowerneck -6.30354 -3.3964 2.80718
upperneck 8.51559 -5.02494 1.94038
head 3.87813 -2.30037 -0.116182
lclavicle 0 0 0
lhumerus -48.2661 -11.2073 84.4727
lradius 54.2288 -0 0
lwrist 19.4489 0 0
lhand 0 0 0
lfingers 0 0 0
lthumb 25.4625 32.6453 -0.0465884
rclavicle 0 0 0
rhumerus 0 0 0
rradius 54.1131 -0 0
rwrist 4.51897 0 0
rhand 0 0 0
rfingers 0 0 0
rthumb 0 0 0
850
root 3.87018 16.3746 28.2579 0 0 0
lfemur -21.3001 2.66905 -14.843
ltibia 34.4229 -0 0
lfoot 0 0 0
ltoes 9.86902 -0 0
rfemur 0 0 0
rtibia 67.3884 -0 0
rfoot 0 0 0
rtoes -13.7536 0 0
lowerback 5.26418 2.12561 -1.18805
upperback 1.51309 2.77974 0.142419
thorax -1.26574 1.39812 1.0047
lowerneck -6.31536 -3.39249 2.76064
upperneck 8.47428 -5.02675 2.0727
head 3.87128 -2.29743 -0.0643731
lclavicle 0 0 0
lhumerus -47.0438 -12.3577 84.1762
lradius 54.3527 -0 0
lwrist 19.8161 0 0
lhand 0 0 0
lfingers 0 0 0
lthumb 26.2165 32.5173 -0.048363
rclavicle 0 0 0
rhumerus 0 0 0
rradius 53.8792 -0 0
rwrist 4.13939 0 0
rhand 0 0 0
rfingers 0 0 0
rthumb 0 0 0
851
root 3.88771 16.396 28.3471 0 0 0
lfemur -20.2311 3.03588 -15.4148
ltibia 34.4015 -0 0
lfoot 0 0 0
ltoes 11.5306 -0 0
rfemur 0 0 0
rtibia 66.5361 -0 0
rfoot 0 0 0
rtoes -12.3632 0 0
lowerback 6.19252 1.66856 -1.55579
upperback 1.83809 2.13718 0.00951425
thorax -1.43694 1.07787 1.0914
lowerneck -6.32723 -3.38857 2.71387
upperneck 8.43277 -5.02848 2.20568
head 3.86439 -2.29447 -0.012309
lclavicle 0 0 0
lhumerus -45.8037 -13.5071 83.8516
lradius 54.4773 -0 0
lwrist 20.1852 0 0
lhand 0 0 0
lfingers 0 0 0
lthumb 26.9743 32.3888 -0.0484505
rclavicle 0 0 0
rhumerus 0 0 0
rradius 53.6443 -0 0
rwrist 3.75794 0 0
rhand 0 0 0
rfingers 0 0 0
rthumb 0 0 0
852
root 3.90334 16.418 28.4333 0 0 0
lfemur -19.176 3.40953 -15.9744
ltibia 34.3803 -0 0
lfoot 0 0 0
ltoes 13.1759 -0 0
rfemur 0 0 0
rtibia 65.6921 -0 0
rfoot 0 0 0
rtoes -10.9865 0 0
lowerback 7.11445 1.22193 -1.9271
upperback 2.16126 1.50169 -0.125631
thorax -1.60692 0.761021 1.17819
lowerneck -6.33899 -3.3847 2.66756
upperneck 8.39165 -5.03009 2.33736
head 3.85757 -2.29153 0.0392441
lclavicle 0 0 0
lhumerus -44.563 -14.6383 83.5033
lradius 54.6006 -0 0
lwrist 20.5506 0 0
lhand 0 0 0
lfingers 0 0 0
lthumb 27.7246 32.2615 -0.046862
rclavicle 0 0 0
rhumerus 0 0 0
rradius 53.4116 -0 0
rwrist 3.38024 0 0
rhand 0 0 0
rfingers 0 0 0
rthumb 0 0 0
853
root 3.91724 16.44 28.5167 0 0 0
lfemur -18.1501 3.78376 -16.5136
ltibia 34.3596 -0 0
lfoot 0 0 0
ltoes 14.7805 -0 0
rfemur 0 0 0
rtibia 64.869 -0 0
rfoot 0 0 0
rtoes -9.64383 0 0
lowerback 8.0162 0.792164 -2.29606
upperback 2.47781 0.882662 -0.260852
thorax -1.77315 0.452263 1.26372
lowerneck -6.35047 -3.38094 2.62239
upperneck 8.35156 -5.03158 2.46578
head 3.85092 -2.28867 0.0895208
lclavicle 0 0 0
lhumerus -43.3397 -15.7341 83.1373
lradius 54.7209 -0 0
lwrist 20.9069 0 0
lhand 0 0 0
lfingers 0 0 0
lthumb 28.4563 32.1374 -0.0437076
rclavicle 0 0 0
rhumerus 0 0 0
rradius 53.1847 -0 0
rwrist 3.01188 0 0
rhand 0 0 0
rfingers 0 0 0
rthumb 0 0 0
854
root 3.9296 16.4618 28.5979 0 0 0
lfemur -17.1687 4.15179 -17.0247
ltibia 34.3397 -0 0
lfoot 0 0 0
ltoes 16.3199 -0 0
rfemur 0 0 0
rtibia 64.0793 -0 0
rfoot 0 0 0
rtoes -8.35571 0 0
lowerback 8.88386 0.385368 -2.65632
upperback 2.78283 0.289489 -0.39378
thorax -1.93306 0.156277 1.34663
lowerneck -6.36148 -3.37734 2.57905
upperneck 8.31308 -5.03292 2.58899
head 3.84455 -2.28591 0.137755
lclavicle 0 0 0
lhumerus -42.1529 -16.7781 82.7615
lradius 54.8363 -0 0
lwrist 21.2488 0 0
lhand 0 0 0
lfingers 0 0 0
lthumb 29.1583 32.0184 -0.0391919
rclavicle 0 0 0
rhumerus 0 0 0
rradius 52.967 -0 0
rwrist 2.65848 0 0
rhand 0 0 0
rfingers 0 0 0
rthumb 0 0 0
855
root 3.94057 16.4831 28.6772 0 0 0
lfemur -16.2471 4.50633 -17.5005
ltibia 34.321 -0 0
lfoot 0 0 0
ltoes 17.7697 -0 0
rfemur 0 0 0
rtibia 63.3356 -0 0
rfoot 0 0 0
rtoes -7.14255 0 0
lowerback 9.70332 0.00728328 -3.0012
upperback 3.07137 -0.268505 -0.521857
thorax -2.08405 -0.122269 1.42546
lowerneck -6.37185 -3.37396 2.53824
upperneck 8.27685 -5.0341 2.70503
head 3.83855 -2.2833 0.183182
lclavicle 0 0 0
lhumerus -41.0224 -17.7542 82.3848
lradius 54.945 -0 0
lwrist 21.5708 0 0
lhand 0 0 0
lfingers 0 0 0
lthumb 29.8194 31.9064 -0.033606
rclavicle 0 0 0
rhumerus 0 0 0
rradius 52.762 -0 0
rwrist 2.32564 0 0
rhand 0 0 0
rfingers 0 0 0
rthumb 0 0 0
856
root 3.95032 16.5035 28.7551 0 0 0
lfemur -15.4002 4.83968 -17.9339
ltibia 34.3038 -0 0
lfoot 0 0 0
ltoes 19.1055 -0 0
rfemur 0 0 0
rtibia 62.6504 -0 0
rfoot 0 0 0
rtoes -6.02482 0 0
lowerback 10.4603 -0.33666 -3.32371
upperback 3.33833 -0.782034 -0.642356
thorax -2.22351 -0.378722 1.49875
lowerneck -6.3814 -3.37084 2.50064
upperneck 8.24346 -5.03513 2.81194
head 3.83302 -2.2809 0.225036
lclavicle 0 0 0
lhumerus -39.9693 -18.6471 82.018
lradius 55.0451 -0 0
lwrist 21.8674 0 0
lhand 0 0 0
lfingers 0 0 0
lthumb 30.4285 31.8032 -0.0273155
rclavicle 0 0 0
rhumerus 0 0 0
rradius 52.5731 -0 0
rwrist 2.01899 0 0
rhand 0 0 0
rfingers 0 0 0
rthumb 0 0 0
857
root 3.95904 16.5226 28.8319 0 0 0
lfemur -14.6429 5.14388 -18.3184
ltibia 34.2883 -0 0
lfoot 0 0 0
ltoes 20.3028 -0 0
rfemur 0 0 0
rtibia 62.0362 -0 0
rfoot 0 0 0
rtoes -5.02294 0 0
lowerback 11.1406 -0.641301 -3.61665
upperback 3.57857 -1.24185 -0.752414
thorax -2.3488 -0.608439 1.56497
lowerneck -6.38997 -3.36806 2.46693
upperneck 8.21353 -5.036 2.90777
head 3.82807 -2.27875 0.262551
lclavicle 0 0 0
lhumerus -39.0154 -19.4418 81.6728
lradius 55.1348 -0 0
lwrist 22.1334 0 0
lhand 0 0 0
lfingers 0 0 0
lthumb 30.9745 31.7108 -0.0207454
rclavicle 0 0 0
rhumerus 0 0 0
rradius 52.4037 -0 0
rwrist 1.74412 0 0
rhand 0 0 0
rfingers 0 0 0
rthumb 0 0 0
858
root 3.96688 16.5403 28.908 0 0 0
lfemur -13.99 5.41073 -18.6474
ltibia 34.275 -0 0
lfoot 0 0 0
ltoes 21.3372 -0 0
rfemur 0 0 0
rtibia 61.5056 -0 0
rfoot 0 0 0
rtoes -4.15738 0 0
lowerback 11.7295 -0.901676 -3.87265
upperback 3.78688 -1.63873 -0.849068
thorax -2.45725 -0.806785 1.62258
lowerneck -6.39738 -3.36566 2.43781
upperneck 8.18767 -5.03671 2.99056
head 3.82379 -2.27688 0.294961
lclavicle 0 0 0
lhumerus -38.1834 -20.1239 81.3619
lradius 55.2124 -0 0
lwrist 22.3631 0 0
lhand 0 0 0
lfingers 0 0 0
lthumb 31.4462 31.631 -0.0143605
rclavicle 0 0 0
rhumerus 0 0 0
rradius 52.2575 -0 0
rwrist 1.50665 0 0
rhand 0 0 0
rfingers 0 0 0
rthumb 0 0 0
859
root 3.97402 16.556 28.9839 0 0 0
lfemur -13.4562 5.63203 -18.9147
ltibia 34.264 -0 0
lfoot 0 0 0
ltoes 22.1843 -0 0
rfemur 0 0 0
rtibia 61.0711 -0 0
rfoot 0 0 0
rtoes -3.44857 0 0
lowerback 12.2127 -1.11293 -4.08428
upperback 3.958 -1.96347 -0.929308
thorax -2.54622 -0.969129 1.67005
lowerneck -6.40344 -3.36369 2.41397
upperneck 8.16649 -5.03726 3.05836
head 3.82029 -2.27535 0.321502
lclavicle 0 0 0
lhumerus -37.4964 -20.6793 81.0984
lradius 55.2759 -0 0
lwrist 22.5512 0 0
lhand 0 0 0
lfingers 0 0 0
lthumb 31.8324 31.5657 -0.00864294
rclavicle 0 0 0
rhumerus 0 0 0
rradius 52.1377 -0 0
rwrist 1.31219 0 0
rhand 0 0 0
rfingers 0 0 0
rthumb 0 0 0
860
root 3.98063 16.5695 29.0599 0 0 0
lfemur -13.0565 5.79962 -19.1139
ltibia 34.2558 -0 0
lfoot 0 0 0
ltoes 22.8196 -0 0
rfemur 0 0 0
rtibia 60.7452 -0 0
rfoot 0 0 0
rtoes -2.91696 0 0
lowerback 12.5756 -1.27019 -4.24418
upperback 4.08666 -2.20687 -0.990135
thorax -2.61304 -1.09084 1.70581
lowerneck -6.40799 -3.36222 2.39608
upperneck 8.15061 -5.03766 3.1092
head 3.81766 -2.2742 0.341408
lclavicle 0 0 0
lhumerus -36.9777 -21.0939 80.8955
lradius 55.3235 -0 0
lwrist 22.6923 0 0
lhand 0 0 0
lfingers 0 0 0
lthumb 32.1221 31.5168 -0.00406601
rclavicle 0 0 0
rhumerus 0 0 0
rradius 52.0478 -0 0
rwrist 1.16634 0 0
rhand 0 0 0
rfingers 0 0 0
rthumb 0 0 0
861
root 3.98688 16.5804 29.1365 0 0 0
lfemur -12.8056 5.90561 -19.2384
ltibia 34.2507 -0 0
lfoot 0 0 0
ltoes 23.2187 -0 0
rfemur 0 0 0
rtibia 60.5404 -0 0
rfoot 0 0 0
rtoes -2.583 0 0
lowerback 12.8039 -1.36846 -4.34515
upperback 4.16762 -2.3597 -1.02863
thorax -2.65506 -1.16727 1.72836
lowerneck -6.41085 -3.3613 2.38485
upperneck 8.14063 -5.03791 3.14115
head 3.81601 -2.27348 0.353913
lclavicle 0 0 0
lhumerus -36.6503 -21.3534 80.7657
lradius 55.3534 -0 0
lwrist 22.7809 0 0
lhand 0 0 0
lfingers 0 0 0
lthumb 32.3041 31.4861 -0.00106424
rclavicle 0 0 0
rhumerus 0 0 0
rradius 51.9914 -0 0
rwrist 1.07472 0 0
rhand 0 0 0
rfingers 0 0 0
rthumb 0 0 0
862
root 3.99294 16.5885 29.214 -15.1059 17.9314 -1.071
lfemur -12.7186 5.94251 -19.2815
ltibia 34.2489 0 0
lfoot -4.61738 -26.7273 0
ltoes 23.3572 0 0
rfemur -59.1898 -0.884971 4.82422
rtibia 60.4694 0 0
rfoot 8.52027 -0.331702 0
rtoes -2.46714 0 0
lowerback 12.8831 -1.40246 -4.38027
upperback 4.19574 -2.41271 -1.04204
thorax -2.66964 -1.19379 1.73619
lowerneck -6.41184 -3.36098 2.38095
upperneck 8.13717 -5.03799 3.15223
head 3.81544 -2.27323 0.358251
lclavicle 2.03879e-14 -1.90833e-14 0
lhumerus -36.5364 -21.4433 80.7202
lradius 55.3638 0 0
lwrist 22.8117 0 0
lhand 7.09616 4.34375 0
lfingers 7.12502 0 0
lthumb 32.3672 31.4754 0
rclavicle 2.03879e-14 -1.90833e-14 0
rhumerus -49.8115 0.462276 -53.5411
rradius 51.9718 0 0
rwrist 1.04293 0 0
rhand -13.3052 -29.5997 0
rfingers 7.12502 0 0
rthumb 12.799 -59.187 0
863
root 3.9979 16.5942 29.2908 0 0 0
lfemur -12.8051 6.33836 -19.2636
ltibia 34.4248 -0 0
lfoot 0 0 0
ltoes 22.66 -0 0
rfemur -59.5927 -1.68323 5.56984
rtibia 61.6152 -0 0
rfoot 0 0 0
rtoes -2.62712 0 0
lowerback 12.9415 -1.47714 -4.4428
upperback 0 0 0
thorax -2.66865 -1.2479 1.751
lowerneck -6.44865 -3.35751 2.36226
upperneck 8.03907 -5.03397 3.2028
head 3.79068 -2.27103 0.378179
lclavicle 0 0 0
lhumerus 0 0 0
lradius 55.5113 -0 0
lwrist 0 0 0
lhand 0 0 0
lfingers 0 0 0
lthumb 0 0 0
rclavicle 0 0 0
rhumerus 0 0 0
rradius 0 0 0
rwrist 0.35497 0 0
rhand -14.2621 -30.2814 0.205198
rfingers 0 0 0
rthumb 11.8752 -59.8524 0.192813
864
root 4.00083 16.5986 29.3649 0 0 0
lfemur -12.9163 6.84799 -19.2414
ltibia 34.6513 -0 0
lfoot 0 0 0
ltoes 21.7626 -0 0
rfemur -60.1269 -2.70301 6.53856
rtibia 63.0903 -0 0
rfoot 0 0 0
rtoes -2.83306 0 0
lowerback 13.0167 -1.57318 -4.52341
upperback 0 0 0
thorax -2.66739 -1.31756 1.77008
lowerneck -6.49605 -3.35306 2.33819
upperneck 7.91278 -5.02866 3.26789
head 3.7588 -2.26819 0.403833
lclavicle 0 0 0
lhumerus 0 0 0
lradius 55.7012 -0 0
lwrist 0 0 0
lhand 0 0 0
lfingers 0 0 0
lthumb 0 0 0
rclavicle 0 0 0
rhumerus 0 0 0
rradius 0 0 0
rwrist -0.53068 0 0
rhand -15.4975 -31.164 0.452523
rfingers 0 0 0
rthumb 10.6828 -60.7135 0.425169
865
root 4.00186 16.6015 29.4366 0 0 0
lfemur -13.0493 7.45779 -19.2161
ltibia 34.9223 -0 0
lfoot 0 0 0
ltoes 20.6888 -0 0
rfemur -60.7894 -3.91095 7.71133
rtibia 64.8551 -0 0
rfoot 0 0 0
rtoes -3.07946 0 0
lowerback 13.1069 -1.68795 -4.62003
upperback 0 0 0
thorax -2.66592 -1.4009 1.79289
lowerneck -6.55276 -3.34776 2.30939
upperneck 7.7617 -5.02213 3.34576
head 3.72066 -2.26477 0.434523
lclavicle 0 0 0
lhumerus 0 0 0
lradius 55.9284 -0 0
lwrist 0 0 0
lhand 0 0 0
lfingers 0 0 0
lthumb 0 0 0
rclavicle 0 0 0
rhumerus 0 0 0
rradius 0 0 0
rwrist -1.5903 0 0
rhand -16.9804 -32.2266 0.723302
rfingers 0 0 0
rthumb 9.25163 -61.7499 0.679508
866
root 4.00113 16.6033 29.506 0 0 0
lfemur -13.201 8.15412 -19.1889
ltibia 35.2317 -0 0
lfoot 0 0 0
ltoes 19.4627 -0 0
rfemur -61.5774 -5.27315 9.06986
rtibia 66.8701 -0 0
rfoot 0 0 0
rtoes -3.3608 0 0
lowerback 13.2102 -1.81881 -4.73058
upperback 0 0 0
thorax -2.66427 -1.49605 1.81894
lowerneck -6.61751 -3.34174 2.2765
upperneck 7.5892 -5.01442 3.43464
head 3.67711 -2.26084 0.469563
lclavicle 0 0 0
lhumerus 0 0 0
lradius 56.1878 -0 0
lwrist 0 0 0
lhand 0 0 0
lfingers 0 0 0
lthumb 0 0 0
rclavicle 0 0 0
rhumerus 0 0 0
rradius 0 0 0
rwrist -2.80016 0 0
rhand -18.6794 -33.4481 0.99867
rfingers 0 0 0
rthumb 7.61216 -62.9406 0.938103
